<svg xmlns="http://www.w3.org/2000/svg" width="26.041" height="11.004" viewBox="0 0 26.041 11.004">
  <g id="Group_19" data-name="Group 19" transform="translate(25.041 11.004) rotate(180)">
    <line id="Line_3" data-name="Line 3" x2="18.077" transform="translate(0 5.502)" fill="none" stroke="#ef476f" stroke-linecap="round" stroke-width="2"/>
    <g id="Polygon_3" data-name="Polygon 3" transform="translate(25.041) rotate(90)" fill="#ef476f" stroke-linecap="round" stroke-linejoin="round">
      <path d="M 6.874659538269043 5.963834762573242 L 4.128979682922363 5.963834762573242 C 3.736529588699341 5.963834762573242 3.400089502334595 5.752974510192871 3.228999614715576 5.399774551391602 C 3.057919502258301 5.046574592590332 3.101029634475708 4.651854515075684 3.344319581985474 4.343904495239258 L 4.717159748077393 2.606274604797363 C 4.907989501953125 2.364724636077881 5.193989753723145 2.226194620132446 5.501819610595703 2.226194620132446 C 5.809649467468262 2.226194620132446 6.095649719238281 2.364724636077881 6.286479473114014 2.606274604797363 L 7.659319400787354 4.34391450881958 C 7.902609825134277 4.651854515075684 7.945719718933105 5.046574592590332 7.77463960647583 5.399774551391602 C 7.603549480438232 5.752974510192871 7.267109394073486 5.963834762573242 6.874659538269043 5.963834762573242 Z" stroke="none"/>
      <path d="M 5.501819610595703 3.226204872131348 L 4.128989696502686 4.96382474899292 C 4.128988265991211 4.963826179504395 4.128987789154053 4.963827133178711 4.128986835479736 4.963828563690186 C 4.128987789154053 4.963830471038818 4.128988742828369 4.963832855224609 4.128979682922363 4.963834762573242 L 6.874649524688721 4.963834762573242 C 6.874650001525879 4.963834285736084 6.874650001525879 4.963833808898926 6.874659538269043 4.963844776153564 L 5.501819610595703 3.226204872131348 M 5.501819610595703 1.226197242736816 C 6.086292266845703 1.226197242736816 6.670764446258545 1.479579448699951 7.071139335632324 1.986344814300537 L 8.443979263305664 3.723984718322754 C 9.48008918762207 5.035434722900391 8.546009063720703 6.963834762573242 6.874659538269043 6.963834762573242 L 4.128979682922363 6.963834762573242 C 2.457629203796387 6.963834762573242 1.523550033569336 5.035434722900391 2.559659957885742 3.723984718322754 L 3.932499408721924 1.986344814300537 C 4.332874774932861 1.479579448699951 4.917346954345703 1.226197242736816 5.501819610595703 1.226197242736816 Z" stroke="none" fill="#ef476f"/>
    </g>
  </g>
</svg>
