<svg xmlns="http://www.w3.org/2000/svg" width="24.083" height="24.083" viewBox="0 0 24.083 24.083"><path d="M12.042-503.841c-3.27,0-3.68.014-4.965.072a8.839,8.839,0,0,0-2.923.56,5.9,5.9,0,0,0-2.133,1.389,5.9,5.9,0,0,0-1.389,2.133,8.838,8.838,0,0,0-.56,2.923C.014-495.48,0-495.07,0-491.8s.014,3.68.072,4.965a8.838,8.838,0,0,0,.56,2.923,5.9,5.9,0,0,0,1.389,2.133,5.9,5.9,0,0,0,2.133,1.389,8.84,8.84,0,0,0,2.923.56c1.284.059,1.694.072,4.965.072s3.68-.014,4.965-.072a8.839,8.839,0,0,0,2.923-.56,5.9,5.9,0,0,0,2.133-1.389,5.9,5.9,0,0,0,1.389-2.133,8.839,8.839,0,0,0,.56-2.923c.059-1.284.072-1.694.072-4.965s-.014-3.68-.072-4.965a8.838,8.838,0,0,0-.56-2.923,5.9,5.9,0,0,0-1.389-2.133,5.9,5.9,0,0,0-2.133-1.389,8.838,8.838,0,0,0-2.923-.56C15.722-503.827,15.312-503.841,12.042-503.841Zm0,2.17c3.215,0,3.6.012,4.866.07a6.664,6.664,0,0,1,2.236.415,3.731,3.731,0,0,1,1.385.9,3.731,3.731,0,0,1,.9,1.385,6.662,6.662,0,0,1,.415,2.236c.058,1.27.07,1.651.07,4.866s-.012,3.6-.07,4.866a6.662,6.662,0,0,1-.415,2.236,3.73,3.73,0,0,1-.9,1.385,3.73,3.73,0,0,1-1.385.9,6.662,6.662,0,0,1-2.236.415c-1.27.058-1.65.07-4.866.07s-3.6-.012-4.866-.07a6.662,6.662,0,0,1-2.236-.415,3.731,3.731,0,0,1-1.385-.9,3.73,3.73,0,0,1-.9-1.385,6.663,6.663,0,0,1-.415-2.236c-.058-1.27-.07-1.651-.07-4.866s.012-3.6.07-4.866a6.663,6.663,0,0,1,.415-2.236,3.731,3.731,0,0,1,.9-1.385,3.732,3.732,0,0,1,1.385-.9,6.664,6.664,0,0,1,2.236-.415C8.445-501.659,8.826-501.671,12.042-501.671Z" transform="translate(0 503.841)" fill="#fff"/><path d="M128.74-371.088a4.014,4.014,0,0,1-4.014-4.014,4.014,4.014,0,0,1,4.014-4.014,4.014,4.014,0,0,1,4.014,4.014A4.014,4.014,0,0,1,128.74-371.088Zm0-10.2a6.183,6.183,0,0,0-6.184,6.184,6.183,6.183,0,0,0,6.184,6.183,6.183,6.183,0,0,0,6.183-6.183A6.183,6.183,0,0,0,128.74-381.285Z" transform="translate(-116.698 387.143)" fill="#fff"/><path d="M359.056-415.181a1.445,1.445,0,0,1-1.445,1.445,1.445,1.445,0,0,1-1.445-1.445,1.445,1.445,0,0,1,1.445-1.445A1.445,1.445,0,0,1,359.056-415.181Z" transform="translate(-339.142 420.795)" fill="#fff"/></svg>